<?xml version="1.0" encoding="UTF-8"?>
<!DOCTYPE svg PUBLIC "-//W3C//DTD SVG 1.1//EN" "http://www.w3.org/Graphics/SVG/1.1/DTD/svg11.dtd">
<svg version="1.2" width="132.6mm" height="30mm" viewBox="0 0 13260 3000" preserveAspectRatio="xMidYMid" fill-rule="evenodd" stroke-width="28.222" stroke-linejoin="round" xmlns="http://www.w3.org/2000/svg" xmlns:ooo="http://xml.openoffice.org/svg/export" xmlns:xlink="http://www.w3.org/1999/xlink" xmlns:presentation="http://sun.com/xmlns/staroffice/presentation" xmlns:smil="http://www.w3.org/2001/SMIL20/" xmlns:anim="urn:oasis:names:tc:opendocument:xmlns:animation:1.0" xmlns:svg="urn:oasis:names:tc:opendocument:xmlns:svg-compatible:1.0" xml:space="preserve">
 <defs class="ClipPathGroup">
  <clipPath id="presentation_clip_path" clipPathUnits="userSpaceOnUse">
   <rect x="0" y="0" width="13260" height="3000"/>
  </clipPath>
  <clipPath id="presentation_clip_path_shrink" clipPathUnits="userSpaceOnUse">
   <rect x="13" y="3" width="13234" height="2994"/>
  </clipPath>
 </defs>
 <defs class="TextShapeIndex">
  <g ooo:slide="id1" ooo:id-list="id3 id4 id5 id6 id7 id8 id9 id10 id11 id12 id13 id14 id15 id16 id17 id18 id19 id20 id21 id22 id23 id24 id25 id26 id27 id28 id29 id30 id31 id32 id33 id34 id35 id36 id37 id38 id39 id40 id41 id42 id43 id44 id45 id46 id47 id48 id49 id50 id51 id52 id53 id54 id55 id56 id57 id58 id59 id60 id61 id62 id63 id64 id65 id66 id67 id68 id69 id70 id71 id72 id73 id74 id75 id76 id77 id78 id79 id80 id81 id82 id83 id84 id85 id86"/>
 </defs>
 <defs class="EmbeddedBulletChars">
  <g id="bullet-char-template-57356" transform="scale(0.00048828125,-0.00048828125)">
   <path d="M 580,1141 L 1163,571 580,0 -4,571 580,1141 Z"/>
  </g>
  <g id="bullet-char-template-57354" transform="scale(0.00048828125,-0.00048828125)">
   <path d="M 8,1128 L 1137,1128 1137,0 8,0 8,1128 Z"/>
  </g>
  <g id="bullet-char-template-10146" transform="scale(0.00048828125,-0.00048828125)">
   <path d="M 174,0 L 602,739 174,1481 1456,739 174,0 Z M 1358,739 L 309,1346 659,739 1358,739 Z"/>
  </g>
  <g id="bullet-char-template-10132" transform="scale(0.00048828125,-0.00048828125)">
   <path d="M 2015,739 L 1276,0 717,0 1260,543 174,543 174,936 1260,936 717,1481 1274,1481 2015,739 Z"/>
  </g>
  <g id="bullet-char-template-10007" transform="scale(0.00048828125,-0.00048828125)">
   <path d="M 0,-2 C -7,14 -16,27 -25,37 L 356,567 C 262,823 215,952 215,954 215,979 228,992 255,992 264,992 276,990 289,987 310,991 331,999 354,1012 L 381,999 492,748 772,1049 836,1024 860,1049 C 881,1039 901,1025 922,1006 886,937 835,863 770,784 769,783 710,716 594,584 L 774,223 C 774,196 753,168 711,139 L 727,119 C 717,90 699,76 672,76 641,76 570,178 457,381 L 164,-76 C 142,-110 111,-127 72,-127 30,-127 9,-110 8,-76 1,-67 -2,-52 -2,-32 -2,-23 -1,-13 0,-2 Z"/>
  </g>
  <g id="bullet-char-template-10004" transform="scale(0.00048828125,-0.00048828125)">
   <path d="M 285,-33 C 182,-33 111,30 74,156 52,228 41,333 41,471 41,549 55,616 82,672 116,743 169,778 240,778 293,778 328,747 346,684 L 369,508 C 377,444 397,411 428,410 L 1163,1116 C 1174,1127 1196,1133 1229,1133 1271,1133 1292,1118 1292,1087 L 1292,965 C 1292,929 1282,901 1262,881 L 442,47 C 390,-6 338,-33 285,-33 Z"/>
  </g>
  <g id="bullet-char-template-9679" transform="scale(0.00048828125,-0.00048828125)">
   <path d="M 813,0 C 632,0 489,54 383,161 276,268 223,411 223,592 223,773 276,916 383,1023 489,1130 632,1184 813,1184 992,1184 1136,1130 1245,1023 1353,916 1407,772 1407,592 1407,412 1353,268 1245,161 1136,54 992,0 813,0 Z"/>
  </g>
  <g id="bullet-char-template-8226" transform="scale(0.00048828125,-0.00048828125)">
   <path d="M 346,457 C 273,457 209,483 155,535 101,586 74,649 74,723 74,796 101,859 155,911 209,963 273,989 346,989 419,989 480,963 531,910 582,859 608,796 608,723 608,648 583,586 532,535 482,483 420,457 346,457 Z"/>
  </g>
  <g id="bullet-char-template-8211" transform="scale(0.00048828125,-0.00048828125)">
   <path d="M -4,459 L 1135,459 1135,606 -4,606 -4,459 Z"/>
  </g>
  <g id="bullet-char-template-61548" transform="scale(0.00048828125,-0.00048828125)">
   <path d="M 173,740 C 173,903 231,1043 346,1159 462,1274 601,1332 765,1332 928,1332 1067,1274 1183,1159 1299,1043 1357,903 1357,740 1357,577 1299,437 1183,322 1067,206 928,148 765,148 601,148 462,206 346,322 231,437 173,577 173,740 Z"/>
  </g>
 </defs>
 <g>
  <g id="id2" class="Master_Slide">
   <g id="bg-id2" class="Background"/>
   <g id="bo-id2" class="BackgroundObjects"/>
  </g>
 </g>
 <g class="SlideGroup">
  <g>
   <g id="container-id1">
    <g id="id1" class="Slide" clip-path="url(#presentation_clip_path)">
     <g class="Page">
      <g class="com.sun.star.drawing.PolyPolygonShape">
       <g id="id3">
        <rect class="BoundingBox" stroke="none" fill="none" x="12" y="12" width="13231" height="13231"/>
       </g>
      </g>
      <g class="Group">
       <g class="com.sun.star.drawing.PolyPolygonShape">
        <g id="id4">
         <rect class="BoundingBox" stroke="none" fill="none" x="5462" y="-1818" width="1610" height="1609"/>
         <path fill="rgb(73,36,36)" stroke="none" d="M 6266,-1817 L 5463,-1013 6266,-211 7070,-1013 6266,-1817 Z M 6266,-491 L 5743,-1013 6266,-1537 6789,-1013 6266,-491 Z"/>
        </g>
       </g>
       <g class="com.sun.star.drawing.PolyPolygonShape">
        <g id="id5">
         <rect class="BoundingBox" stroke="none" fill="none" x="5574" y="-1706" width="1386" height="1385"/>
         <path fill="rgb(255,240,194)" stroke="none" d="M 5575,-1013 L 6266,-1705 6958,-1013 6266,-323 5575,-1013 Z M 5631,-1013 L 6266,-379 6902,-1013 6266,-1649 5631,-1013 Z"/>
        </g>
       </g>
       <g class="com.sun.star.drawing.PolyPolygonShape">
        <g id="id6">
         <rect class="BoundingBox" stroke="none" fill="none" x="5087" y="-1544" width="1030" height="1030"/>
         <path fill="rgb(73,36,36)" stroke="none" d="M 5602,-1543 L 5088,-1029 5602,-516 6116,-1029 5602,-1543 Z M 5602,-763 L 5334,-1029 5602,-1297 5869,-1029 5602,-763 Z"/>
        </g>
       </g>
       <g class="com.sun.star.drawing.PolyPolygonShape">
        <g id="id7">
         <rect class="BoundingBox" stroke="none" fill="none" x="5178" y="-1453" width="848" height="848"/>
         <path fill="rgb(255,240,194)" stroke="none" d="M 5602,-607 L 5179,-1029 5602,-1452 6025,-1029 5602,-607 Z M 5241,-1029 L 5602,-669 5963,-1029 5602,-1390 5241,-1029 Z"/>
        </g>
       </g>
       <g class="com.sun.star.drawing.PolyPolygonShape">
        <g id="id8">
         <rect class="BoundingBox" stroke="none" fill="none" x="6422" y="-1514" width="1030" height="1030"/>
         <path fill="rgb(73,36,36)" stroke="none" d="M 6936,-1513 L 6422,-1000 6936,-486 7450,-1000 6936,-1513 Z M 6936,-732 L 6668,-1000 6936,-1266 7203,-1000 6936,-732 Z"/>
        </g>
       </g>
       <g class="com.sun.star.drawing.PolyPolygonShape">
        <g id="id9">
         <rect class="BoundingBox" stroke="none" fill="none" x="6513" y="-1423" width="848" height="848"/>
         <path fill="rgb(255,240,194)" stroke="none" d="M 6936,-577 L 6513,-1000 6936,-1422 7359,-1000 6936,-577 Z M 6575,-1000 L 6936,-639 7297,-1000 6936,-1360 6575,-1000 Z"/>
        </g>
       </g>
       <g class="com.sun.star.drawing.ClosedBezierShape">
        <g id="id10">
         <rect class="BoundingBox" stroke="none" fill="none" x="7492" y="-1058" width="3729" height="90"/>
         <path fill="rgb(73,36,36)" stroke="none" d="M 7492,-1013 C 7492,-1013 7725,-1028 8075,-1038 8162,-1041 8257,-1044 8357,-1046 8457,-1048 8562,-1051 8671,-1052 8781,-1053 8893,-1055 9008,-1056 9123,-1056 9239,-1057 9356,-1057 9472,-1057 9589,-1056 9703,-1056 9818,-1056 9931,-1053 10040,-1052 10258,-1049 10462,-1044 10637,-1038 10986,-1028 11219,-1013 11219,-1013 11219,-1013 10986,-1000 10637,-989 10462,-983 10258,-979 10040,-976 9931,-975 9818,-972 9703,-972 9589,-971 9472,-971 9356,-970 9239,-971 9123,-972 9008,-972 8893,-972 8781,-975 8671,-976 8562,-977 8457,-980 8357,-982 8257,-984 8162,-987 8075,-989 7725,-1000 7492,-1013 7492,-1013 Z"/>
        </g>
       </g>
       <g class="com.sun.star.drawing.ClosedBezierShape">
        <g id="id11">
         <rect class="BoundingBox" stroke="none" fill="none" x="7803" y="-1210" width="2775" height="45"/>
         <path fill="rgb(73,36,36)" stroke="none" d="M 7803,-1188 C 7803,-1188 7846,-1189 7922,-1192 7998,-1194 8106,-1198 8236,-1200 8366,-1202 8518,-1205 8680,-1207 8843,-1209 9016,-1209 9189,-1209 9363,-1209 9536,-1209 9698,-1207 9861,-1205 10012,-1202 10143,-1200 10273,-1198 10381,-1194 10457,-1192 10532,-1189 10576,-1187 10576,-1187 10576,-1187 10532,-1186 10457,-1183 10381,-1181 10272,-1177 10143,-1175 10013,-1173 9861,-1169 9698,-1168 9536,-1166 9363,-1166 9189,-1166 9016,-1166 8843,-1166 8680,-1168 8518,-1170 8366,-1173 8236,-1175 8106,-1177 7998,-1181 7922,-1183 7846,-1186 7803,-1188 7803,-1188 Z"/>
        </g>
       </g>
       <g class="com.sun.star.drawing.ClosedBezierShape">
        <g id="id12">
         <rect class="BoundingBox" stroke="none" fill="none" x="7803" y="-862" width="2775" height="46"/>
         <path fill="rgb(73,36,36)" stroke="none" d="M 7803,-840 C 7803,-840 7846,-842 7922,-844 7998,-846 8106,-850 8236,-852 8366,-854 8518,-858 8680,-859 8843,-861 9016,-862 9189,-862 9363,-862 9536,-861 9698,-859 9861,-858 10012,-854 10143,-852 10273,-850 10381,-846 10457,-844 10532,-842 10576,-840 10576,-840 10576,-840 10532,-839 10457,-836 10381,-834 10272,-830 10143,-828 10013,-826 9861,-822 9698,-821 9536,-819 9363,-819 9189,-818 9016,-819 8843,-819 8680,-821 8518,-822 8366,-826 8236,-828 8106,-830 7998,-834 7922,-836 7846,-839 7803,-840 7803,-840 Z"/>
        </g>
       </g>
       <g class="com.sun.star.drawing.ClosedBezierShape">
        <g id="id13">
         <rect class="BoundingBox" stroke="none" fill="none" x="1288" y="-1058" width="3729" height="90"/>
         <path fill="rgb(73,36,36)" stroke="none" d="M 5016,-1013 C 5016,-1013 4783,-1000 4433,-989 4346,-987 4251,-984 4151,-982 4051,-980 3946,-977 3837,-976 3727,-975 3615,-972 3500,-972 3385,-972 3269,-971 3152,-970 3036,-971 2919,-971 2805,-972 2690,-972 2577,-975 2468,-976 2250,-979 2046,-983 1871,-989 1522,-1000 1289,-1013 1289,-1013 1289,-1013 1522,-1028 1871,-1038 2046,-1044 2250,-1049 2468,-1052 2577,-1053 2690,-1056 2805,-1056 2919,-1056 3036,-1057 3152,-1057 3269,-1057 3385,-1056 3500,-1056 3615,-1055 3727,-1053 3837,-1052 3946,-1051 4051,-1048 4151,-1046 4251,-1044 4346,-1041 4433,-1038 4783,-1028 5016,-1013 5016,-1013 Z"/>
        </g>
       </g>
       <g class="com.sun.star.drawing.ClosedBezierShape">
        <g id="id14">
         <rect class="BoundingBox" stroke="none" fill="none" x="1931" y="-1210" width="2775" height="45"/>
         <path fill="rgb(73,36,36)" stroke="none" d="M 4705,-1188 C 4705,-1188 4662,-1186 4586,-1183 4510,-1182 4402,-1177 4272,-1175 4142,-1173 3990,-1170 3828,-1168 3665,-1166 3492,-1166 3319,-1166 3145,-1166 2972,-1166 2810,-1168 2647,-1170 2495,-1173 2365,-1175 2235,-1177 2127,-1181 2051,-1183 1975,-1186 1932,-1188 1932,-1188 1932,-1188 1975,-1189 2051,-1192 2127,-1194 2235,-1198 2365,-1200 2495,-1202 2647,-1206 2810,-1207 2972,-1209 3145,-1209 3319,-1209 3492,-1209 3665,-1209 3828,-1207 3990,-1205 4142,-1202 4272,-1200 4402,-1198 4510,-1194 4586,-1192 4662,-1189 4705,-1188 4705,-1188 Z"/>
        </g>
       </g>
       <g class="com.sun.star.drawing.ClosedBezierShape">
        <g id="id15">
         <rect class="BoundingBox" stroke="none" fill="none" x="1931" y="-862" width="2775" height="46"/>
         <path fill="rgb(73,36,36)" stroke="none" d="M 4705,-840 C 4705,-840 4662,-839 4586,-836 4510,-834 4402,-830 4272,-828 4142,-826 3990,-822 3828,-821 3665,-819 3492,-819 3319,-818 3145,-819 2972,-819 2810,-821 2647,-822 2495,-826 2365,-828 2235,-830 2127,-834 2051,-836 1975,-839 1932,-840 1932,-840 1932,-840 1975,-842 2051,-844 2127,-846 2235,-850 2365,-852 2495,-854 2647,-858 2810,-859 2972,-861 3145,-862 3319,-862 3492,-861 3665,-861 3828,-859 3990,-858 4142,-854 4272,-852 4402,-850 4510,-846 4586,-844 4662,-842 4705,-840 4705,-840 Z"/>
        </g>
       </g>
       <g class="com.sun.star.drawing.PolyPolygonShape">
        <g id="id16">
         <rect class="BoundingBox" stroke="none" fill="none" x="6141" y="-1313" width="252" height="253"/>
         <path fill="rgb(73,36,36)" stroke="none" d="M 6328,-1124 L 6266,-1061 6142,-1187 6266,-1312 6391,-1187 6328,-1124 Z"/>
        </g>
       </g>
       <g class="com.sun.star.drawing.PolyPolygonShape">
        <g id="id17">
         <rect class="BoundingBox" stroke="none" fill="none" x="6141" y="-937" width="252" height="252"/>
         <path fill="rgb(73,36,36)" stroke="none" d="M 6328,-749 L 6266,-687 6142,-812 6266,-937 6391,-812 6328,-749 Z"/>
        </g>
       </g>
       <g class="com.sun.star.drawing.PolyPolygonShape">
        <g id="id18">
         <rect class="BoundingBox" stroke="none" fill="none" x="4748" y="-1240" width="103" height="104"/>
         <path fill="rgb(73,36,36)" stroke="none" d="M 4825,-1162 L 4799,-1137 4749,-1188 4799,-1239 4850,-1188 4825,-1162 Z"/>
        </g>
       </g>
       <g class="com.sun.star.drawing.PolyPolygonShape">
        <g id="id19">
         <rect class="BoundingBox" stroke="none" fill="none" x="4888" y="-1260" width="144" height="145"/>
         <path fill="rgb(73,36,36)" stroke="none" d="M 4996,-1152 L 4960,-1116 4889,-1188 4960,-1259 5031,-1188 4996,-1152 Z"/>
        </g>
       </g>
       <g class="com.sun.star.drawing.PolyPolygonShape">
        <g id="id20">
         <rect class="BoundingBox" stroke="none" fill="none" x="7673" y="-1239" width="104" height="103"/>
         <path fill="rgb(73,36,36)" stroke="none" d="M 7750,-1162 L 7724,-1137 7673,-1187 7724,-1238 7775,-1187 7750,-1162 Z"/>
        </g>
       </g>
       <g class="com.sun.star.drawing.PolyPolygonShape">
        <g id="id21">
         <rect class="BoundingBox" stroke="none" fill="none" x="7492" y="-1260" width="145" height="144"/>
         <path fill="rgb(73,36,36)" stroke="none" d="M 7599,-1152 L 7563,-1117 7492,-1188 7563,-1259 7635,-1188 7599,-1152 Z"/>
        </g>
       </g>
       <g class="com.sun.star.drawing.PolyPolygonShape">
        <g id="id22">
         <rect class="BoundingBox" stroke="none" fill="none" x="4748" y="-891" width="103" height="103"/>
         <path fill="rgb(73,36,36)" stroke="none" d="M 4825,-815 L 4799,-790 4749,-840 4799,-891 4850,-840 4825,-815 Z"/>
        </g>
       </g>
       <g class="com.sun.star.drawing.PolyPolygonShape">
        <g id="id23">
         <rect class="BoundingBox" stroke="none" fill="none" x="4888" y="-912" width="144" height="145"/>
         <path fill="rgb(73,36,36)" stroke="none" d="M 4996,-805 L 4960,-769 4889,-840 4960,-912 5031,-840 4996,-805 Z"/>
        </g>
       </g>
       <g class="com.sun.star.drawing.PolyPolygonShape">
        <g id="id24">
         <rect class="BoundingBox" stroke="none" fill="none" x="7673" y="-891" width="104" height="104"/>
         <path fill="rgb(73,36,36)" stroke="none" d="M 7750,-815 L 7724,-789 7673,-840 7724,-891 7775,-840 7750,-815 Z"/>
        </g>
       </g>
       <g class="com.sun.star.drawing.PolyPolygonShape">
        <g id="id25">
         <rect class="BoundingBox" stroke="none" fill="none" x="7492" y="-912" width="145" height="145"/>
         <path fill="rgb(73,36,36)" stroke="none" d="M 7599,-805 L 7563,-769 7492,-841 7563,-912 7635,-841 7599,-805 Z"/>
        </g>
       </g>
      </g>
      <g class="Group">
       <g class="com.sun.star.drawing.ClosedBezierShape">
        <g id="id26">
         <rect class="BoundingBox" stroke="none" fill="none" x="11090" y="-2038" width="2888" height="44"/>
         <path fill="rgb(0,0,0)" stroke="none" d="M 11090,-2016 C 11090,-2016 11135,-2017 11214,-2020 11293,-2022 11405,-2026 11541,-2028 11676,-2031 11834,-2033 12003,-2034 12087,-2035 12175,-2035 12263,-2036 12352,-2036 12442,-2037 12533,-2037 12623,-2037 12713,-2036 12802,-2036 12890,-2035 12978,-2035 13062,-2034 13232,-2033 13389,-2031 13525,-2028 13660,-2026 13773,-2022 13852,-2020 13930,-2017 13976,-2016 13976,-2016 13976,-2016 13930,-2015 13852,-2012 13773,-2010 13660,-2006 13525,-2004 13389,-2001 13232,-1999 13062,-1998 12978,-1997 12890,-1997 12802,-1996 12713,-1996 12623,-1995 12533,-1995 12442,-1995 12352,-1996 12263,-1996 12175,-1997 12087,-1997 12003,-1998 11834,-1999 11676,-2001 11541,-2004 11405,-2006 11293,-2010 11214,-2012 11135,-2015 11090,-2016 11090,-2016 Z"/>
        </g>
       </g>
       <g class="com.sun.star.drawing.PolyPolygonShape">
        <g id="id27">
         <rect class="BoundingBox" stroke="none" fill="none" x="14464" y="-1683" width="327" height="327"/>
         <path fill="rgb(0,0,0)" stroke="none" d="M 14464,-1357 L 14789,-1357 14789,-1682 14464,-1682 14464,-1357 Z M 14551,-1444 L 14551,-1595 14702,-1595 14702,-1444 14551,-1444 Z"/>
        </g>
       </g>
       <g class="com.sun.star.drawing.PolyPolygonShape">
        <g id="id28">
         <rect class="BoundingBox" stroke="none" fill="none" x="13968" y="-2179" width="327" height="326"/>
         <path fill="rgb(0,0,0)" stroke="none" d="M 13968,-1854 L 14293,-1854 14293,-2178 13968,-2178 13968,-1854 Z M 14055,-1940 L 14055,-2092 14206,-2092 14206,-1940 14055,-1940 Z"/>
        </g>
       </g>
       <g class="com.sun.star.drawing.PolyPolygonShape">
        <g id="id29">
         <rect class="BoundingBox" stroke="none" fill="none" x="14130" y="-2017" width="499" height="498"/>
         <path fill="rgb(0,0,0)" stroke="none" d="M 14130,-1520 L 14627,-1520 14627,-2016 14130,-2016 14130,-1520 Z M 14215,-1605 L 14215,-1931 14541,-1931 14541,-1605 14215,-1605 Z"/>
        </g>
       </g>
       <g class="com.sun.star.drawing.ClosedBezierShape">
        <g id="id30">
         <rect class="BoundingBox" stroke="none" fill="none" x="11701" y="-2017" width="2431" height="220"/>
         <path fill="rgb(0,0,0)" stroke="none" d="M 14130,-1814 C 14029,-1811 13928,-1809 13827,-1807 L 13524,-1803 C 13423,-1801 13322,-1800 13221,-1800 L 12918,-1799 C 12817,-1798 12716,-1799 12615,-1799 L 12312,-1800 C 12211,-1801 12110,-1803 12009,-1804 11908,-1805 11807,-1806 11706,-1809 L 11701,-1809 11701,-1814 C 11702,-1881 11704,-1949 11706,-2016 11708,-1950 11709,-1885 11711,-1819 11810,-1821 11910,-1823 12009,-1824 12110,-1825 12211,-1827 12312,-1827 L 12615,-1829 C 12716,-1829 12817,-1830 12918,-1829 L 13221,-1828 C 13322,-1827 13423,-1827 13524,-1825 L 13827,-1821 C 13928,-1819 14029,-1817 14130,-1814 Z"/>
        </g>
       </g>
       <g class="com.sun.star.drawing.ClosedBezierShape">
        <g id="id31">
         <rect class="BoundingBox" stroke="none" fill="none" x="14603" y="-1521" width="64" height="3043"/>
         <path fill="rgb(0,0,0)" stroke="none" d="M 14634,1521 C 14634,1521 14623,1331 14616,1046 14614,975 14612,897 14611,816 14609,734 14608,648 14607,559 14606,470 14604,378 14604,284 14603,191 14603,96 14603,1 14603,-94 14603,-189 14604,-283 14604,-376 14606,-469 14606,-558 14609,-736 14612,-902 14616,-1045 14623,-1330 14634,-1520 14634,-1520 14634,-1520 14644,-1330 14652,-1045 14656,-902 14659,-736 14661,-558 14662,-469 14664,-376 14664,-283 14664,-189 14665,-94 14665,1 14665,96 14664,191 14664,284 14664,378 14662,470 14661,559 14660,648 14658,734 14657,816 14656,897 14654,975 14652,1046 14644,1331 14634,1521 14634,1521 Z"/>
        </g>
       </g>
       <g class="com.sun.star.drawing.PolyPolygonShape">
        <g id="id32">
         <rect class="BoundingBox" stroke="none" fill="none" x="14504" y="-1643" width="247" height="247"/>
         <path fill="rgb(91,31,126)" stroke="none" d="M 14749,-1397 L 14504,-1397 14504,-1642 14749,-1642 14749,-1397 Z M 14519,-1412 L 14734,-1412 14734,-1627 14519,-1627 14519,-1412 Z"/>
        </g>
       </g>
       <g class="com.sun.star.drawing.PolyPolygonShape">
        <g id="id33">
         <rect class="BoundingBox" stroke="none" fill="none" x="14007" y="-2140" width="248" height="248"/>
         <path fill="rgb(91,31,126)" stroke="none" d="M 14253,-1893 L 14007,-1893 14007,-2139 14253,-2139 14253,-1893 Z M 14023,-1909 L 14237,-1909 14237,-2123 14023,-2123 14023,-1909 Z"/>
        </g>
       </g>
       <g class="com.sun.star.drawing.PolyPolygonShape">
        <g id="id34">
         <rect class="BoundingBox" stroke="none" fill="none" x="14164" y="-1983" width="430" height="430"/>
         <path fill="rgb(91,31,126)" stroke="none" d="M 14592,-1554 L 14164,-1554 14164,-1982 14592,-1982 14592,-1554 Z M 14180,-1569 L 14577,-1569 14577,-1966 14180,-1966 14180,-1569 Z"/>
        </g>
       </g>
       <g class="com.sun.star.drawing.ClosedBezierShape">
        <g id="id35">
         <rect class="BoundingBox" stroke="none" fill="none" x="11069" y="-2118" width="458" height="204"/>
         <path fill="rgb(0,0,0)" stroke="none" d="M 11341,-2117 C 11270,-2075 11069,-2016 11069,-2016 11069,-2016 11270,-1957 11341,-1915 11371,-1950 11525,-2016 11525,-2016 11525,-2016 11370,-2082 11341,-2117 Z"/>
        </g>
       </g>
       <g class="com.sun.star.drawing.ClosedBezierShape">
        <g id="id36">
         <rect class="BoundingBox" stroke="none" fill="none" x="14533" y="1083" width="204" height="457"/>
         <path fill="rgb(0,0,0)" stroke="none" d="M 14533,1268 C 14575,1339 14634,1539 14634,1539 14634,1539 14693,1339 14735,1268 14700,1238 14634,1084 14634,1084 14634,1084 14568,1238 14533,1268 Z"/>
        </g>
       </g>
       <g class="com.sun.star.drawing.ClosedBezierShape">
        <g id="id37">
         <rect class="BoundingBox" stroke="none" fill="none" x="12091" y="-2017" width="2041" height="431"/>
         <path fill="rgb(0,0,0)" stroke="none" d="M 14130,-1602 C 14046,-1600 13961,-1598 13876,-1596 13792,-1594 13707,-1593 13623,-1592 13538,-1591 13454,-1589 13369,-1589 L 13115,-1588 C 13031,-1588 12946,-1587 12862,-1587 L 12608,-1588 12354,-1589 12100,-1593 12091,-1593 12091,-1602 C 12092,-1671 12093,-1740 12095,-1809 12097,-1878 12098,-1947 12100,-2016 12103,-1947 12104,-1878 12106,-1809 12108,-1743 12109,-1678 12110,-1612 L 12354,-1615 12608,-1617 12862,-1618 C 12946,-1618 13031,-1617 13115,-1617 L 13369,-1616 C 13454,-1616 13538,-1614 13623,-1613 13707,-1611 13792,-1611 13876,-1609 13961,-1607 14046,-1605 14130,-1602 Z"/>
        </g>
       </g>
       <g class="com.sun.star.drawing.ClosedBezierShape">
        <g id="id38">
         <rect class="BoundingBox" stroke="none" fill="none" x="11904" y="-2017" width="2228" height="326"/>
         <path fill="rgb(0,0,0)" stroke="none" d="M 14130,-1708 C 14038,-1705 13945,-1704 13853,-1701 L 13575,-1697 C 13483,-1696 13391,-1695 13298,-1694 L 13021,-1693 C 12928,-1693 12836,-1692 12744,-1693 L 12466,-1694 C 12374,-1694 12281,-1695 12189,-1697 L 11912,-1701 11904,-1701 11904,-1708 C 11907,-1811 11908,-1913 11912,-2016 11915,-1916 11916,-1816 11919,-1716 L 12189,-1719 C 12281,-1721 12374,-1722 12466,-1722 L 12744,-1723 C 12836,-1724 12928,-1723 13021,-1723 L 13298,-1722 C 13391,-1722 13483,-1720 13576,-1719 L 13853,-1715 C 13945,-1713 14038,-1711 14130,-1708 Z"/>
        </g>
       </g>
       <g class="com.sun.star.drawing.ClosedBezierShape">
        <g id="id39">
         <rect class="BoundingBox" stroke="none" fill="none" x="11522" y="-2017" width="2448" height="121"/>
         <path fill="rgb(0,0,0)" stroke="none" d="M 13968,-1915 C 13866,-1911 13764,-1909 13662,-1906 L 13357,-1901 C 13153,-1898 12950,-1897 12746,-1897 L 12441,-1897 12136,-1900 11830,-1905 C 11729,-1906 11627,-1909 11525,-1912 L 11522,-1912 11522,-1915 11525,-2016 11528,-1918 C 11629,-1921 11730,-1924 11830,-1925 L 12136,-1930 12441,-1933 12746,-1933 C 12950,-1933 13153,-1932 13357,-1929 L 13662,-1924 C 13764,-1921 13866,-1919 13968,-1915 Z"/>
        </g>
       </g>
       <g class="com.sun.star.drawing.ClosedBezierShape">
        <g id="id40">
         <rect class="BoundingBox" stroke="none" fill="none" x="14401" y="-1513" width="228" height="2432"/>
         <path fill="rgb(0,0,0)" stroke="none" d="M 14416,-1512 C 14419,-1411 14421,-1310 14423,-1209 L 14427,-906 C 14429,-805 14430,-704 14430,-603 L 14431,-300 14431,-148 14431,3 14429,306 C 14429,407 14427,508 14426,609 14425,709 14424,808 14421,907 14490,909 14558,910 14627,912 14556,915 14486,916 14416,918 L 14411,918 14411,912 C 14408,811 14407,710 14406,609 14405,508 14403,407 14403,306 L 14401,3 14401,-148 14401,-300 14402,-603 C 14402,-704 14403,-805 14405,-906 L 14409,-1209 C 14411,-1310 14413,-1411 14416,-1512 Z"/>
        </g>
       </g>
       <g class="com.sun.star.drawing.ClosedBezierShape">
        <g id="id41">
         <rect class="BoundingBox" stroke="none" fill="none" x="14189" y="-1513" width="440" height="2035"/>
         <path fill="rgb(0,0,0)" stroke="none" d="M 14205,-1512 C 14208,-1427 14209,-1343 14211,-1259 14213,-1175 14214,-1090 14215,-1006 14216,-922 14218,-837 14218,-753 L 14219,-500 14220,-374 14220,-247 14219,6 14218,258 14214,502 C 14281,503 14348,504 14416,506 14486,507 14556,509 14627,511 14556,514 14486,515 14416,517 14345,519 14275,520 14205,521 L 14195,521 14195,511 14192,258 14190,6 14189,-247 14190,-374 14190,-500 14191,-753 C 14191,-837 14193,-922 14194,-1006 14196,-1090 14196,-1175 14198,-1259 14200,-1343 14202,-1427 14205,-1512 Z"/>
        </g>
       </g>
       <g class="com.sun.star.drawing.ClosedBezierShape">
        <g id="id42">
         <rect class="BoundingBox" stroke="none" fill="none" x="14089" y="-1499" width="540" height="1820"/>
         <path fill="rgb(0,0,0)" stroke="none" d="M 14105,-1498 C 14108,-1423 14109,-1348 14111,-1272 14113,-1197 14114,-1122 14115,-1047 L 14118,-821 14119,-595 C 14119,-445 14121,-294 14120,-144 L 14118,295 14366,299 14496,303 C 14540,304 14583,306 14627,307 14583,309 14540,311 14496,312 L 14366,316 14105,320 14092,320 14092,307 14090,-144 C 14089,-294 14091,-445 14091,-595 L 14092,-821 14095,-1047 C 14096,-1122 14097,-1197 14099,-1272 14101,-1348 14103,-1423 14105,-1498 Z"/>
        </g>
       </g>
       <g class="com.sun.star.drawing.ClosedBezierShape">
        <g id="id43">
         <rect class="BoundingBox" stroke="none" fill="none" x="12275" y="-2017" width="1832" height="536"/>
         <path fill="rgb(0,0,0)" stroke="none" d="M 14105,-1498 C 14029,-1495 13954,-1494 13878,-1492 13802,-1490 13726,-1489 13650,-1488 L 13423,-1485 13196,-1484 12969,-1483 C 12893,-1482 12817,-1483 12741,-1483 L 12514,-1485 C 12438,-1485 12362,-1486 12287,-1487 L 12275,-1487 12276,-1498 C 12277,-1584 12278,-1671 12280,-1757 12282,-1843 12284,-1930 12287,-2016 12290,-1930 12291,-1843 12294,-1757 12295,-1674 12296,-1592 12298,-1509 12370,-1510 12442,-1512 12514,-1512 L 12741,-1513 C 12817,-1513 12893,-1514 12969,-1514 L 13196,-1512 13423,-1511 13650,-1508 C 13726,-1507 13802,-1506 13878,-1504 13954,-1502 14029,-1501 14105,-1498 Z"/>
        </g>
       </g>
       <g class="com.sun.star.drawing.ClosedBezierShape">
        <g id="id44">
         <rect class="BoundingBox" stroke="none" fill="none" x="14295" y="-1513" width="334" height="2229"/>
         <path fill="rgb(0,0,0)" stroke="none" d="M 14310,-1512 C 14313,-1419 14315,-1327 14317,-1234 L 14321,-957 14323,-818 14324,-680 14325,-402 C 14326,-310 14326,-218 14325,-125 L 14324,152 C 14324,245 14323,337 14322,430 L 14318,699 C 14421,702 14524,703 14627,707 14521,710 14416,712 14310,715 L 14303,715 14303,707 14299,430 C 14297,337 14297,245 14297,152 L 14295,-125 C 14295,-218 14295,-310 14296,-402 L 14297,-680 14298,-818 14300,-957 14304,-1234 C 14306,-1327 14307,-1419 14310,-1512 Z"/>
        </g>
       </g>
       <g class="com.sun.star.drawing.ClosedBezierShape">
        <g id="id45">
         <rect class="BoundingBox" stroke="none" fill="none" x="14499" y="-1358" width="137" height="2456"/>
         <path fill="rgb(0,0,0)" stroke="none" d="M 14517,-1357 C 14521,-1255 14523,-1153 14526,-1051 L 14531,-745 C 14534,-540 14535,-336 14535,-132 L 14535,174 14533,481 14528,787 C 14527,888 14523,989 14521,1090 L 14634,1093 14517,1097 14514,1097 14513,1093 C 14511,991 14508,889 14507,787 L 14502,481 14500,174 14499,-132 C 14500,-336 14500,-540 14504,-745 L 14509,-1051 C 14512,-1153 14513,-1255 14517,-1357 Z"/>
        </g>
       </g>
       <g class="com.sun.star.drawing.PolyPolygonShape">
        <g id="id46">
         <rect class="BoundingBox" stroke="none" fill="none" x="13037" y="-1215" width="811" height="811"/>
         <path fill="rgb(0,0,0)" stroke="none" d="M 13037,-405 L 13846,-405 13846,-1214 13037,-1214 13037,-405 Z M 13705,-1073 L 13705,-546 13178,-546 13178,-1073 13705,-1073 Z"/>
        </g>
       </g>
       <g class="com.sun.star.drawing.PolyPolygonShape">
        <g id="id47">
         <rect class="BoundingBox" stroke="none" fill="none" x="13094" y="-1158" width="698" height="698"/>
         <path fill="rgb(91,31,126)" stroke="none" d="M 13790,-461 L 13094,-461 13094,-1157 13790,-1157 13790,-461 Z M 13762,-489 L 13762,-1129 13122,-1129 13122,-489 13762,-489 Z"/>
        </g>
       </g>
       <g class="com.sun.star.drawing.PolyPolygonShape">
        <g id="id48">
         <rect class="BoundingBox" stroke="none" fill="none" x="13510" y="-726" width="519" height="519"/>
         <path fill="rgb(0,0,0)" stroke="none" d="M 13510,-208 L 14027,-208 14027,-725 13510,-725 13510,-208 Z M 13903,-601 L 13903,-332 13634,-332 13634,-601 13903,-601 Z"/>
        </g>
       </g>
       <g class="com.sun.star.drawing.PolyPolygonShape">
        <g id="id49">
         <rect class="BoundingBox" stroke="none" fill="none" x="13556" y="-680" width="427" height="428"/>
         <path fill="rgb(91,31,126)" stroke="none" d="M 13981,-253 L 13556,-253 13556,-679 13981,-679 13981,-253 Z M 13587,-285 L 13950,-285 13950,-648 13587,-648 13587,-285 Z"/>
        </g>
       </g>
       <g class="com.sun.star.drawing.PolyPolygonShape">
        <g id="id50">
         <rect class="BoundingBox" stroke="none" fill="none" x="12853" y="-1413" width="520" height="519"/>
         <path fill="rgb(0,0,0)" stroke="none" d="M 12853,-895 L 13371,-895 13371,-1412 12853,-1412 12853,-895 Z M 13247,-1288 L 13247,-1019 12977,-1019 12977,-1288 13247,-1288 Z"/>
        </g>
       </g>
       <g class="com.sun.star.drawing.PolyPolygonShape">
        <g id="id51">
         <rect class="BoundingBox" stroke="none" fill="none" x="12899" y="-1368" width="428" height="428"/>
         <path fill="rgb(91,31,126)" stroke="none" d="M 13325,-941 L 12899,-941 12899,-1367 13325,-1367 13325,-941 Z M 12930,-972 L 13294,-972 13294,-1335 12930,-1335 12930,-972 Z"/>
        </g>
       </g>
       <g class="com.sun.star.drawing.ClosedBezierShape">
        <g id="id52">
         <rect class="BoundingBox" stroke="none" fill="none" x="13371" y="-1362" width="607" height="638"/>
         <path fill="rgb(0,0,0)" stroke="none" d="M 13966,-725 C 13963,-777 13962,-829 13961,-881 L 13958,-1038 C 13957,-1090 13957,-1142 13956,-1194 L 13956,-1341 13817,-1342 C 13767,-1342 13718,-1342 13668,-1343 L 13519,-1346 C 13470,-1348 13420,-1349 13371,-1351 13420,-1353 13470,-1354 13519,-1356 L 13668,-1359 C 13718,-1360 13767,-1360 13817,-1360 L 13966,-1361 13976,-1361 13976,-1351 13975,-1194 C 13975,-1142 13975,-1090 13974,-1038 L 13971,-881 C 13969,-829 13968,-777 13966,-725 Z"/>
        </g>
       </g>
      </g>
      <g class="com.sun.star.drawing.PolyPolygonShape">
       <g id="id53">
        <rect class="BoundingBox" stroke="none" fill="none" x="5555" y="416" width="2111" height="2109"/>
        <path fill="rgb(0,0,0)" stroke="none" d="M 6610,416 L 5556,1471 6610,2524 7664,1471 6610,416 Z M 6610,2156 L 5923,1471 6610,784 7296,1471 6610,2156 Z"/>
       </g>
      </g>
      <g class="com.sun.star.drawing.PolyPolygonShape">
       <g id="id54">
        <rect class="BoundingBox" stroke="none" fill="none" x="5702" y="563" width="1817" height="1815"/>
        <path fill="rgb(134,15,187)" stroke="none" d="M 5703,1471 L 6610,563 7518,1471 6610,2377 5703,1471 Z M 5776,1471 L 6610,2303 7444,1471 6610,637 5776,1471 Z"/>
       </g>
      </g>
      <g class="com.sun.star.drawing.PolyPolygonShape">
       <g id="id55">
        <rect class="BoundingBox" stroke="none" fill="none" x="5064" y="775" width="1350" height="1350"/>
        <path fill="rgb(0,0,0)" stroke="none" d="M 5738,776 L 5064,1450 5738,2124 6412,1450 5738,776 Z M 5738,1800 L 5387,1450 5738,1098 6088,1450 5738,1800 Z"/>
       </g>
      </g>
      <g class="com.sun.star.drawing.PolyPolygonShape">
       <g id="id56">
        <rect class="BoundingBox" stroke="none" fill="none" x="5183" y="895" width="1111" height="1111"/>
        <path fill="rgb(134,15,187)" stroke="none" d="M 5738,2004 L 5184,1450 5738,895 6293,1450 5738,2004 Z M 5265,1450 L 5738,1923 6212,1450 5738,976 5265,1450 Z"/>
       </g>
      </g>
      <g class="com.sun.star.drawing.PolyPolygonShape">
       <g id="id57">
        <rect class="BoundingBox" stroke="none" fill="none" x="6814" y="815" width="1350" height="1349"/>
        <path fill="rgb(0,0,0)" stroke="none" d="M 7489,815 L 6815,1489 7489,2163 8163,1489 7489,815 Z M 7489,1840 L 7137,1489 7489,1139 7839,1489 7489,1840 Z"/>
       </g>
      </g>
      <g class="com.sun.star.drawing.PolyPolygonShape">
       <g id="id58">
        <rect class="BoundingBox" stroke="none" fill="none" x="6934" y="934" width="1111" height="1111"/>
        <path fill="rgb(134,15,187)" stroke="none" d="M 7489,2044 L 6934,1489 7489,934 8043,1489 7489,2044 Z M 7015,1489 L 7489,1962 7962,1489 7489,1016 7015,1489 Z"/>
       </g>
      </g>
      <g class="com.sun.star.drawing.ClosedBezierShape">
       <g id="id59">
        <rect class="BoundingBox" stroke="none" fill="none" x="8217" y="1412" width="4889" height="118"/>
        <path fill="rgb(0,0,0)" stroke="none" d="M 8218,1471 C 8218,1471 8523,1451 8982,1438 9096,1434 9221,1430 9352,1427 9483,1425 9621,1421 9764,1420 9908,1418 10055,1416 10206,1414 10356,1414 10508,1413 10662,1413 10814,1413 10967,1414 11117,1414 11268,1414 11416,1418 11559,1420 11845,1423 12112,1430 12342,1438 12799,1451 13105,1471 13105,1471 13105,1471 12799,1489 12342,1503 12112,1511 11845,1517 11559,1520 11416,1522 11268,1526 11117,1526 10967,1527 10814,1527 10662,1528 10508,1527 10356,1526 10206,1526 10055,1526 9908,1522 9764,1520 9621,1519 9483,1515 9352,1513 9221,1510 9096,1506 8982,1503 8523,1489 8218,1471 8218,1471 Z"/>
       </g>
      </g>
      <g class="com.sun.star.drawing.ClosedBezierShape">
       <g id="id60">
        <rect class="BoundingBox" stroke="none" fill="none" x="8625" y="1213" width="3638" height="59"/>
        <path fill="rgb(0,0,0)" stroke="none" d="M 8626,1241 C 8626,1241 8682,1240 8782,1236 8881,1233 9023,1228 9193,1225 9364,1223 9563,1219 9775,1216 9989,1214 10216,1214 10443,1214 10671,1214 10898,1214 11110,1216 11324,1219 11522,1223 11694,1225 11864,1228 12006,1233 12106,1236 12204,1240 12262,1243 12262,1243 12262,1243 12204,1244 12106,1248 12006,1250 11863,1256 11694,1258 11523,1261 11324,1266 11110,1267 10898,1270 10671,1270 10443,1270 10216,1270 9989,1270 9775,1267 9563,1265 9364,1261 9193,1258 9023,1256 8881,1250 8782,1248 8682,1244 8626,1241 8626,1241 Z"/>
       </g>
      </g>
      <g class="com.sun.star.drawing.ClosedBezierShape">
       <g id="id61">
        <rect class="BoundingBox" stroke="none" fill="none" x="8625" y="1669" width="3638" height="60"/>
        <path fill="rgb(0,0,0)" stroke="none" d="M 8626,1699 C 8626,1699 8682,1696 8782,1694 8881,1691 9023,1686 9193,1683 9364,1680 9563,1675 9775,1674 9989,1671 10216,1670 10443,1670 10671,1670 10898,1671 11110,1674 11324,1675 11522,1680 11694,1683 11864,1686 12006,1691 12106,1694 12204,1696 12262,1699 12262,1699 12262,1699 12204,1700 12106,1704 12006,1707 11863,1712 11694,1715 11523,1717 11324,1722 11110,1724 10898,1726 10671,1726 10443,1728 10216,1726 9989,1726 9775,1724 9563,1722 9364,1717 9193,1715 9023,1712 8881,1707 8782,1704 8682,1700 8626,1699 8626,1699 Z"/>
       </g>
      </g>
      <g class="com.sun.star.drawing.ClosedBezierShape">
       <g id="id62">
        <rect class="BoundingBox" stroke="none" fill="none" x="82" y="1412" width="4889" height="118"/>
        <path fill="rgb(0,0,0)" stroke="none" d="M 4970,1471 C 4970,1471 4664,1489 4205,1503 4091,1506 3967,1510 3836,1513 3704,1515 3567,1519 3424,1520 3280,1522 3133,1526 2982,1526 2831,1526 2679,1527 2526,1528 2374,1527 2220,1527 2071,1526 1920,1526 1772,1522 1629,1520 1343,1517 1075,1511 846,1503 388,1489 83,1471 83,1471 83,1471 388,1451 846,1438 1075,1430 1343,1423 1629,1420 1772,1418 1920,1414 2071,1414 2220,1414 2374,1413 2526,1413 2679,1413 2831,1414 2982,1414 3133,1416 3280,1418 3424,1420 3567,1421 3704,1425 3836,1427 3967,1430 4091,1434 4205,1438 4664,1451 4970,1471 4970,1471 Z"/>
       </g>
      </g>
      <g class="com.sun.star.drawing.ClosedBezierShape">
       <g id="id63">
        <rect class="BoundingBox" stroke="none" fill="none" x="925" y="1213" width="3639" height="59"/>
        <path fill="rgb(0,0,0)" stroke="none" d="M 4562,1241 C 4562,1241 4506,1244 4406,1248 4306,1249 4165,1256 3994,1258 3824,1261 3624,1265 3412,1267 3198,1270 2971,1270 2745,1270 2516,1270 2290,1270 2077,1267 1863,1265 1664,1261 1494,1258 1323,1256 1182,1250 1082,1248 982,1244 926,1241 926,1241 926,1241 982,1240 1082,1236 1182,1233 1323,1228 1494,1225 1664,1223 1863,1218 2077,1216 2290,1214 2516,1214 2745,1214 2971,1214 3198,1214 3412,1216 3624,1219 3824,1223 3994,1225 4165,1228 4306,1233 4406,1236 4506,1240 4562,1241 4562,1241 Z"/>
       </g>
      </g>
      <g class="com.sun.star.drawing.ClosedBezierShape">
       <g id="id64">
        <rect class="BoundingBox" stroke="none" fill="none" x="925" y="1669" width="3639" height="60"/>
        <path fill="rgb(0,0,0)" stroke="none" d="M 4562,1699 C 4562,1699 4506,1700 4406,1704 4306,1707 4165,1712 3994,1715 3824,1717 3624,1722 3412,1724 3198,1726 2971,1726 2745,1728 2516,1726 2290,1726 2077,1724 1863,1722 1664,1717 1494,1715 1323,1712 1182,1707 1082,1704 982,1700 926,1699 926,1699 926,1699 982,1696 1082,1694 1182,1691 1323,1686 1494,1683 1664,1680 1863,1675 2077,1674 2290,1671 2516,1670 2745,1670 2971,1671 3198,1671 3412,1674 3624,1675 3824,1680 3994,1683 4165,1686 4306,1691 4406,1694 4506,1696 4562,1699 4562,1699 Z"/>
       </g>
      </g>
      <g class="com.sun.star.drawing.PolyPolygonShape">
       <g id="id65">
        <rect class="BoundingBox" stroke="none" fill="none" x="6446" y="1078" width="330" height="331"/>
        <path fill="rgb(0,0,0)" stroke="none" d="M 6691,1325 L 6610,1408 6446,1243 6610,1079 6774,1243 6691,1325 Z"/>
       </g>
      </g>
      <g class="com.sun.star.drawing.PolyPolygonShape">
       <g id="id66">
        <rect class="BoundingBox" stroke="none" fill="none" x="6446" y="1571" width="330" height="330"/>
        <path fill="rgb(0,0,0)" stroke="none" d="M 6691,1818 L 6610,1899 6446,1736 6610,1572 6774,1736 6691,1818 Z"/>
       </g>
      </g>
      <g class="com.sun.star.drawing.PolyPolygonShape">
       <g id="id67">
        <rect class="BoundingBox" stroke="none" fill="none" x="4619" y="1174" width="135" height="136"/>
        <path fill="rgb(0,0,0)" stroke="none" d="M 4719,1275 L 4685,1308 4620,1241 4685,1174 4752,1241 4719,1275 Z"/>
       </g>
      </g>
      <g class="com.sun.star.drawing.PolyPolygonShape">
       <g id="id68">
        <rect class="BoundingBox" stroke="none" fill="none" x="4803" y="1148" width="188" height="189"/>
        <path fill="rgb(0,0,0)" stroke="none" d="M 4944,1288 L 4896,1336 4803,1241 4896,1148 4989,1241 4944,1288 Z"/>
       </g>
      </g>
      <g class="com.sun.star.drawing.PolyPolygonShape">
       <g id="id69">
        <rect class="BoundingBox" stroke="none" fill="none" x="8455" y="1175" width="135" height="135"/>
        <path fill="rgb(0,0,0)" stroke="none" d="M 8556,1275 L 8522,1308 8455,1243 8522,1176 8589,1243 8556,1275 Z"/>
       </g>
      </g>
      <g class="com.sun.star.drawing.PolyPolygonShape">
       <g id="id70">
        <rect class="BoundingBox" stroke="none" fill="none" x="8217" y="1148" width="190" height="188"/>
        <path fill="rgb(0,0,0)" stroke="none" d="M 8358,1288 L 8311,1334 8218,1241 8311,1148 8405,1241 8358,1288 Z"/>
       </g>
      </g>
      <g class="com.sun.star.drawing.PolyPolygonShape">
       <g id="id71">
        <rect class="BoundingBox" stroke="none" fill="none" x="4619" y="1631" width="135" height="135"/>
        <path fill="rgb(0,0,0)" stroke="none" d="M 4719,1732 L 4685,1764 4620,1699 4685,1632 4752,1699 4719,1732 Z"/>
       </g>
      </g>
      <g class="com.sun.star.drawing.PolyPolygonShape">
       <g id="id72">
        <rect class="BoundingBox" stroke="none" fill="none" x="4803" y="1604" width="188" height="189"/>
        <path fill="rgb(0,0,0)" stroke="none" d="M 4944,1745 L 4896,1792 4803,1699 4896,1604 4989,1699 4944,1745 Z"/>
       </g>
      </g>
      <g class="com.sun.star.drawing.PolyPolygonShape">
       <g id="id73">
        <rect class="BoundingBox" stroke="none" fill="none" x="8455" y="1631" width="135" height="136"/>
        <path fill="rgb(0,0,0)" stroke="none" d="M 8556,1732 L 8522,1766 8455,1699 8522,1632 8589,1699 8556,1732 Z"/>
       </g>
      </g>
      <g class="com.sun.star.drawing.PolyPolygonShape">
       <g id="id74">
        <rect class="BoundingBox" stroke="none" fill="none" x="8217" y="1604" width="190" height="189"/>
        <path fill="rgb(0,0,0)" stroke="none" d="M 8358,1745 L 8311,1792 8218,1698 8311,1604 8405,1698 8358,1745 Z"/>
       </g>
      </g>
      <g class="Group">
       <g class="com.sun.star.drawing.ClosedBezierShape">
        <g id="id75">
         <rect class="BoundingBox" stroke="none" fill="none" x="10598" y="4429" width="11207" height="72"/>
         <path fill="rgb(0,0,0)" stroke="none" d="M 10599,4466 C 10599,4466 11300,4458 12351,4445 12875,4442 13488,4439 14145,4434 14802,4434 15502,4432 16201,4429 16902,4432 17601,4434 18258,4434 18915,4439 19528,4442 20054,4445 21105,4458 21804,4466 21804,4466 21804,4466 21105,4473 20054,4484 19528,4486 18915,4492 18258,4494 17601,4497 16902,4497 16201,4499 15502,4497 14802,4497 14145,4494 13488,4492 12875,4486 12351,4484 11300,4473 10599,4466 10599,4466 Z"/>
        </g>
       </g>
       <g class="com.sun.star.drawing.ClosedBezierShape">
        <g id="id76">
         <rect class="BoundingBox" stroke="none" fill="none" x="10532" y="4134" width="1572" height="349"/>
         <path fill="rgb(0,0,0)" stroke="none" d="M 11469,4135 C 11224,4278 10533,4482 10533,4482 L 12103,4482 C 12103,4482 11568,4255 11469,4135 Z"/>
        </g>
       </g>
       <g class="com.sun.star.drawing.ClosedBezierShape">
        <g id="id77">
         <rect class="BoundingBox" stroke="none" fill="none" x="20471" y="4134" width="1569" height="349"/>
         <path fill="rgb(0,0,0)" stroke="none" d="M 21103,4135 C 21348,4278 22039,4482 22039,4482 L 20472,4482 C 20472,4482 21004,4255 21103,4135 Z"/>
        </g>
       </g>
       <g class="com.sun.star.drawing.PolyPolygonShape">
        <g id="id78">
         <rect class="BoundingBox" stroke="none" fill="none" x="14644" y="2911" width="3115" height="1559"/>
         <path fill="rgb(0,0,0)" stroke="none" d="M 16201,3186 L 17484,4469 17758,4469 16201,2912 14645,4469 14919,4469 16201,3186 Z"/>
        </g>
       </g>
       <g class="com.sun.star.drawing.PolyPolygonShape">
        <g id="id79">
         <rect class="BoundingBox" stroke="none" fill="none" x="14232" y="2499" width="3939" height="1971"/>
         <path fill="rgb(0,0,0)" stroke="none" d="M 16201,2776 L 17896,4469 18170,4469 16201,2500 14233,4469 14507,4469 16201,2776 Z"/>
        </g>
       </g>
       <g class="com.sun.star.drawing.PolyPolygonShape">
        <g id="id80">
         <rect class="BoundingBox" stroke="none" fill="none" x="12923" y="3355" width="2229" height="1115"/>
         <path fill="rgb(0,0,0)" stroke="none" d="M 14038,3551 L 14955,4468 15150,4468 14038,3355 12924,4468 13120,4468 14038,3551 Z"/>
        </g>
       </g>
       <g class="com.sun.star.drawing.PolyPolygonShape">
        <g id="id81">
         <rect class="BoundingBox" stroke="none" fill="none" x="12629" y="3060" width="2818" height="1410"/>
         <path fill="rgb(0,0,0)" stroke="none" d="M 14037,3257 L 15249,4469 15445,4469 14037,3061 12629,4469 12825,4469 14037,3257 Z"/>
        </g>
       </g>
       <g class="com.sun.star.drawing.PolyPolygonShape">
        <g id="id82">
         <rect class="BoundingBox" stroke="none" fill="none" x="17223" y="3355" width="2231" height="1115"/>
         <path fill="rgb(0,0,0)" stroke="none" d="M 18339,3551 L 19256,4468 19452,4468 18339,3355 17223,4468 17421,4468 18339,3551 Z"/>
        </g>
       </g>
       <g class="com.sun.star.drawing.PolyPolygonShape">
        <g id="id83">
         <rect class="BoundingBox" stroke="none" fill="none" x="16928" y="3060" width="2820" height="1410"/>
         <path fill="rgb(0,0,0)" stroke="none" d="M 18339,3257 L 19551,4469 19747,4469 18339,3061 16928,4469 17127,4469 18339,3257 Z"/>
        </g>
       </g>
       <g class="com.sun.star.drawing.PolyPolygonShape">
        <g id="id84">
         <rect class="BoundingBox" stroke="none" fill="none" x="15387" y="3621" width="1632" height="818"/>
         <path fill="rgb(0,0,0)" stroke="none" d="M 15387,4437 L 16201,3621 17017,4437 15387,4437 Z"/>
        </g>
       </g>
       <g class="com.sun.star.drawing.PolyPolygonShape">
        <g id="id85">
         <rect class="BoundingBox" stroke="none" fill="none" x="13468" y="3913" width="1139" height="570"/>
         <path fill="rgb(0,0,0)" stroke="none" d="M 13469,4481 L 14038,3913 14606,4481 13469,4481 Z"/>
        </g>
       </g>
       <g class="com.sun.star.drawing.PolyPolygonShape">
        <g id="id86">
         <rect class="BoundingBox" stroke="none" fill="none" x="17768" y="3913" width="1141" height="570"/>
         <path fill="rgb(0,0,0)" stroke="none" d="M 17768,4481 L 18339,3913 18907,4481 17768,4481 Z"/>
        </g>
       </g>
      </g>
     </g>
    </g>
   </g>
  </g>
 </g>
</svg>