<?xml version="1.0" encoding="utf-8"?>

<!DOCTYPE svg PUBLIC "-//W3C//DTD SVG 1.1//EN" "http://www.w3.org/Graphics/SVG/1.1/DTD/svg11.dtd">
<svg version="1.1" id="Layer_1" xmlns="http://www.w3.org/2000/svg" xmlns:xlink="http://www.w3.org/1999/xlink" x="0px" y="0px"
	 viewBox="0 0 2684.62 1019.824" enable-background="new 0 0 2684.62 1019.824" xml:space="preserve">
<g>
	<path opacity="0.97" enable-background="new    " d="M862.587,57.428c23.756-1.788,48.693,13.68,54.898,37.2
		c6.072,21.421-7.372,46.344-28.912,52.416c-14.892,4.358-32.162-2.6-39.814-16.103c-7.771-12.779-3.309-31.63,10.179-38.633
		c7.948-3.974,18.496,1.211,20.003,10.002c3.342,13.534-18.451,27.885-28.587,4.58c-0.99,4.934-1.935,10.12-0.369,15.039
		c4.255,14.818,21.51,23.889,36.224,19.59c16.561-4.609,27.685-22.293,25.854-39.209c-2.009-21.643-22.219-38.987-43.508-40.199
		c-35.977-2.898-68.041,39.504-53.022,80.175c13.136,35.384,54.105,56.832,93.161,45.753c11.132-3.76,90.708-68.918,172.598-71.828
		c140.747-6.865,221.086,150.435,149.611,252.98c47.284-19.312,89.571-9.981,111.539,24.066
		c11.08-18.304,30.98-30.374,52.047-33.166c20.003-3.309,40.243,1.773,58.917,8.775c-82.154-117.041,37.563-322.378,239.965-228.56
		c27.109,12.735,52.682,28.454,77.472,45.207c5.791,3.767,12.956,4.343,19.649,5.112c56.859,5.542,104.197-54.88,72.316-103.163
		c-29.071-43.855-83.367-25.01-89.852,11.878c-3.501,17.979,8.273,37.968,26.312,42.341c13.961,3.812,29.724-4.609,34.806-18.038
		c2.186-5.333,1.329-11.154,0.473-16.664c-2.526,4.447-4.964,9.854-10.341,11.361c-8.539,3.531-18.999-3.885-18.688-13.045
		c-0.69-12.313,16.232-21.696,28.114-6.308c17.579,21.425-3.984,51.864-31.453,49.225c-20.845-2.083-36.786-22.456-36.402-42.946
		c-0.133-21.185,16.576-39.681,36.357-45.384c41.627-13.841,84.17,28.189,76.763,72.744c-5.471,34.722-41.327,69.23-93.117,62.743
		c97.43,70.184,161.715,116.572,227.703,116.961c62.928-1.131,100.606-42.539,100.844-88.936
		c-0.489-40.298-29.129-65.21-54.942-62.521c-31.38,3.38-40.774,47.145-18.541,58.503c7.933,4.698,18.57,3.294,24.967-3.383
		c-27.429,0.425-23.743-26.323-9.928-30.655c10.578-4.284,23.076,5.998,20.934,17.181c-2.29,9.78-9.041,19.25-18.939,22.352
		c-31.145,9.121-47.425-36.762-19.161-60.29c23.607-20.774,67.949-5.175,79.333,38.529c12.638,45.846-17.045,103.498-82.362,114.967
		c-60.63,11.522-119.34-23.183-171.239-55.814c7.431,12.912,12.557,27.449,12.395,42.488c1.737,73.597-84.385,99.396-120.064,51.855
		c-15.822-20.594-13.414-53.007,6.249-70.277c15.926-14.508,42.917-14.626,58.444,0.547c19.12,18.507,10.931,50.742-11.538,56.523
		c-8.081,1.802-17.403,0.798-23.815-4.816c-6.943-6.205-5.274-19.043,3.309-22.943c11.682-6.353,29.968,8.132,14.212,25.263
		c27.014-5.236,28.881-35.643,14.596-49.284c-13.385-13.222-36.742-13.414-50.643-0.872c-17.551,15.616-19.383,44.453-5.644,63.127
		c16.103,22.278,48.989,28.66,73.129,16.369c34.049-16.282,49.339-66.587,26.12-105.246c-2.763-4.535-5.688-9.204-10.208-12.173
		c-92.435-62.73-192.861-149.336-295.424-121.29c-141.818,37.866-142.644,211.483-79.171,249.302
		c25.819,15.162,26.869,21.749,33.285,21.111c1098.498-3.432,934.158,8.877,998.522-13.311c3.073,3.176,6.205,6.308,9.352,9.44
		c4.432-2.689,9.529-2.408,14.153-0.31c2.969-3.029,5.717-6.338,9.189-8.849c10.223,2.777,19.708,7.771,29.783,11.036
		c3.811-0.783,7.401-2.467,11.08-3.797c1.521,1.64,3.102,3.265,4.713,4.89c2.526-0.635,5.185-0.916,7.8-0.148
		c1.522-1.566,3.058-3.147,4.609-4.727c7.697,2.674,15.32,5.599,22.795,8.894c-7.594,3.043-15.172,6.131-22.899,8.79
		c-1.611-1.758-3.162-3.501-4.713-5.245c-0.739,0.428-2.216,1.271-2.955,1.684c-1.536-0.561-3.043-1.108-4.521-1.655
		c-1.655,1.743-3.309,3.472-4.92,5.215c-3.634-1.33-7.121-3.102-10.932-3.782c-10.105,3.354-19.855,7.771-29.886,11.39
		c-3.177-3.235-6.382-6.441-9.647-9.573c-4.255,2.984-9.307,2.571-13.547-0.089c-3.162,3.235-6.353,6.426-9.529,9.632
		c-12.853-4.166-24.967-11.036-38.189-13.71c-1022.783-0.141-964.559,1.132-968.842-2.231
		c-77.877-62.592-139.962-42.049-157.13-1.684c-0.428,0.798-1.758,4.284-2.511,1.551c-17.742-42.526-79.991-62.184-158.017,0.192
		c-3.634,3.487-8.997,1.817-13.488,2.186c-1077.687-0.253-937.678-5.848-993.514,13.606c-3.088-3.25-6.22-6.456-9.44-9.558
		c-4.255,2.674-9.352,2.689-13.71,0.281c-3.117,2.984-5.954,6.249-9.292,8.997c-10.4-2.718-20.151-7.727-30.33-11.302
		c-3.516,1.359-7.032,2.718-10.548,4.063c-1.788-1.788-3.56-3.546-5.348-5.304c-0.842,0.458-2.541,1.374-3.398,1.832
		c-0.857-0.428-2.571-1.285-3.427-1.728c-1.876,1.728-3.738,3.442-5.599,5.185c-7.653-2.896-15.246-5.968-22.928-8.775
		c7.638-2.94,15.261-5.954,22.899-8.894c1.581,1.566,3.162,3.117,4.757,4.668c2.763-0.532,5.555-0.547,8.317,0.015
		c1.64-1.551,3.25-3.117,4.86-4.698c3.457,1.359,6.914,2.718,10.356,4.092c9.883-3.634,19.53-8.037,29.562-11.213
		c4.048,2.053,6.692,6.116,10.061,9.1c4.27-2.807,9.514-2.733,13.71,0.177c3.398-3.043,6.057-7.283,10.208-9.278
		c65.764,18.617-129.19,11.26,1001.344,12.868c28.462-23.519,36.3-21.924,42.902-30.773
		c60.579-76.402,19.71-226.817-113.593-243.776c-96.622-11.913-190.337,69.014-273.781,125.22
		c-13.319,8.562-33.437,49.956-12.883,89.202c23.57,47.227,87.464,43.435,105.748,4.993c10.253-20.387,4.255-49.166-16.443-60.556
		c-17.255-10.135-43.404-3.501-50.865,15.881c-6.884,15.808,3.368,37.022,21.229,38.795c-3.088-4.018-6.781-8.406-5.954-13.857
		c0.34-8.894,10.371-15.217,18.585-12.085c15.542,5.077,12.639,30.68-12.971,29.237c-29.177-0.453-39.204-44.616-11.863-61.65
		c16.916-11.494,41.75-8.657,55.622,6.382c17.891,18.319,18.718,49.831,2.334,69.391c-24.807,30.51-78.358,30.521-104.094-5.909
		c-12.897-18.334-18.038-42.193-12.779-64.087c1.729-9.145,6.057-17.447,9.987-25.78c-23.386,14.833-47.024,29.503-72.538,40.435
		c-144.744,62.285-217.184-59.356-168.107-125.559c30.418-36.843,74.264-23.208,80.648,10.622
		c7.429,32.345-26.994,48.412-43.183,30.463c-21.284-23.826,1.358-39.318,14.079-32.295c9.44,4.151,11.641,18.097,4.299,25.174
		c-3.915,4.639-10.341,4.55-15.852,5.289c36.505,25.406,53.83-38.876,14.419-53.672c-21.379-8.648-53.143,7.63-61.251,44.01
		c-14.282,64.163,58.995,157.237,211.216,67.19c37.542-22.272,112.491-76.56,115.75-79.097
		c-44.134,7.687-83.701-21.625-92.275-56.848C797.028,96.03,828.613,59.433,862.587,57.428z"/>
	<path opacity="0.97" enable-background="new    " d="M113.589,609.881c10.43-2.822,19.959-8.672,30.507-10.962
		c3.368,2.733,6.205,6.042,9.278,9.1c8.012-3.023,5.186-3.558,13.606,0.177c3.339-3.117,6.131-6.988,10.075-9.396
		c10.578,3.56,20.786,8.14,31.275,11.996c5.171,1.876,10.77,0.916,16.147,1.108c1032.166-0.054,951.283-2.935,962.977,5.599
		c75.568,58.362,137.604,39.652,155.003-5.185c5.318,15.261,17.108,28.01,31.733,34.806c39.651,18.953,88.153-2.795,123.122-29.724
		c10.952-7.634-7.277-4.827,99.573-5.51c966.691,0.049,861.456,5.392,911.24-13.414c3.147,3.206,6.338,6.412,9.485,9.647
		c4.344-3.132,9.485-2.571,14.138-0.443c3.043-3.102,6.101-6.19,9.189-9.263c9.928,3.752,19.708,8.022,29.769,11.42
		c3.782-0.635,7.254-2.438,10.858-3.708c1.595,1.655,3.235,3.294,4.875,4.964c2.497-1.078,5.141-0.945,7.756-0.207
		c1.566-1.522,3.117-3.102,4.89-4.462c8.007,1.98,15.394,5.924,23.224,8.539c-7.859,2.482-15.202,6.515-23.194,8.436
		c-1.729-1.389-3.25-2.969-4.787-4.476c-2.63,0.665-5.274,0.443-7.845-0.044c-1.625,1.596-3.22,3.221-4.772,4.846
		c-3.664-1.315-7.313-2.659-10.932-3.974c-9.928,3.915-19.841,7.874-29.857,11.568c-3.132-3.147-6.264-6.294-9.337-9.455
		c-4.476,2.659-9.617,2.822-13.961-0.103c-3.162,3.221-6.353,6.412-9.514,9.603c-52.475-17.535,51.676-12.822-540.353-13.03
		c-1.551-0.005-461.07-1.297-463.694,1.389c-8.79,7.032-17.95,13.621-27.641,19.338c-38.036,22.535-57.95,104.947-20.062,173.765
		c30.844,55.723,91.261,81.887,142.047,80.885c87.617-0.737,174.267-73.578,250.838-125.397
		c23.225-14.017,37.954-77.071-2.231-110.949c-39.814-33.89-104.809-1.616-93.028,47.763c7.836,37.505,50.569,42.51,67.515,19.294
		c9.71-13.135,8.509-39.626-18.038-45.428c3.826,4.151,7.8,9.588,6.146,15.601c-1.669,9.071-13.178,14.389-21.008,9.219
		c-8.259-4.461-9.13-17.314-1.817-23.032c15.566-11.84,42.762-3.199,45.34,24.214c3.087,39.766-53.476,54.313-76.068,20.86
		c-14.212-19.471-12.543-48.413,3.664-66.215c18.866-20.786,51.796-25.883,76.748-13.636
		c33.319,15.274,55.253,63.701,28.128,111.554c30.91-19.171,143.767-98.101,222.237-32.782
		c48.239,39.277,42.46,111.785-0.857,134.069c-39.309,21.383-73.667-20.023-58.178-50.732c5.156-10.223,17.684-16.133,28.838-13.385
		c3.708,1.197,7.136,3.073,10.667,4.698c4.314,6.796,10.607,13.739,9.469,22.426c-0.842,9.75-12.306,16.354-21.215,12.557
		c-14.457-4.994-14.456-28.735,5.629-30.906c1.448,0.34,4.476,3.058,5.259,0.65c-8.672-9.721-26.326-7.697-33.329,3.309
		c-8.716,13.636-4.092,32.812,7.726,43.138c19.056,17.309,52.86,7.873,67.204-24.258c18.682-41.614-5.073-101.223-66.436-115.321
		c-79.135-19.368-161.722,47.134-255.802,113.445c95.018-9.143,125.46,100.093,56.228,132.843
		c-23.268,11.435-54.1,3.59-68.519-18.097c-18.101-25.301-2.406-61.157,24.657-66.865c15.364-3.516,32.487,4.905,39.076,19.235
		c6.101,12.543,0.901,29.606-11.627,36.003c-8.775,4.742-20.712-2.777-20.092-12.72c-0.458-8.864,8.968-16.059,17.448-13.695
		c5.924,1.152,8.849,6.855,11.627,11.597c0.975-5.954,1.61-12.277-1.079-17.905c-5.658-12.572-20.697-20.225-34.156-16.694
		c-18.6,4.506-30.522,25.514-26.134,43.907c5.156,23.962,31.674,40.331,55.46,34.836c45.219-9.817,64.762-77.251,13.946-113.327
		c-19.708-14.064-46.433-18.925-69.376-10.607c-46.64,30.847-96.293,61.265-152.669,69.243
		c-78.807,11.794-165.322-35.336-187.667-123.476c-10.888-42.961-5.318-91.374,20.712-127.997
		c-42.368,17.372-88.588,13.021-111.214-24.051c-11.893,18.674-32.413,31.172-54.411,33.418
		c-19.206,2.659-38.249-2.467-56.287-8.554c52.02,75.68,25.009,207.21-92.969,244.752
		c-104.983,33.377-209.103-55.087-229.062-64.058c-61.359-19.321-122.171,45.719-88.611,99.012
		c26.683,43.313,81.743,28.775,90.295-9.012c4.24-17.905-6.618-38.293-24.45-43.626c-17.133-5.629-42.725,7.618-36.594,34.452
		c8.746-23.034,32.327-9.686,28.542,4.742c-1.596,8.687-12.247,13.946-20.077,9.677c-13.414-6.929-17.713-25.691-10.135-38.367
		c18.071-32.527,69.003-17.2,70.277,24.317c0.952,36.429-44.624,62.71-80.441,41.72c-33.923-19.441-44.319-64.804-20.638-96.988
		c13.296-18.91,34.969-31.615,57.941-34.053c7.712-0.813,15.483-0.207,23.209,0.369c-90.651-62.903-195.021-151.48-282.97-103.192
		c-43.104,23.669-57.384,76.631-35.604,112.352c15.554,25.84,46.082,33.4,63.718,16.561c11.464-10.253,15.926-28.882,7.623-42.37
		c-6.751-10.859-23.49-13.68-32.708-4.299c4.86,0.355,10.312,0.133,14.227,3.59c13.528,10.015,2.325,32.929-14.094,27.7
		c-7.978-2.009-13.34-11.006-11.051-18.939c9.385-30.474,41.41-25.519,49.402-6.22c8.362,18.777-1.743,42.636-20.121,51.116
		c-20.872,10.305-52.649-1.133-66.746-32.413c-31.958-72.479,49.075-179.299,199.441-100.371
		c17.137,8.672,33.107,19.398,49.565,29.222c-26.57-47.742-4.665-95.882,28.158-111.081c26.637-13.296,63.083-6.574,80.722,18.156
		c14.847,20.269,12.469,51.131-5.998,68.372c-15.867,15.512-43.848,15.822-59.67,0.118c-14.611-13.784-13.843-40.878,3.191-52.328
		c9.396-6.426,23.209-6.618,32.162,0.724c6.811,5.747,5.954,17.58-1.655,22.264c-7.712,5.673-19.944,0.517-21.51-8.834
		c-1.522-5.643,1.994-10.696,4.728-15.29c-25.099,4.072-29.876,38.187-9.721,52.091c14.448,10.711,36.387,8.938,48.826-4.092
		c17.004-17.093,16.812-46.994,1.019-64.826c-19.885-22.825-57.675-25.203-80.958-6.234c-32.428,25.691-35.619,79.348-7.446,109.264
		c95.59,65.3,194.562,150.009,296.252,123.211c123.743-32.83,146.847-170.04,94.979-238.148
		c-5.865-8.864-16.724-11.656-24.775-17.979c-7.18-4.181-13.015-10.593-20.343-14.33c-10.961-0.025-964.212-0.485-968.812,0.65
		c-10.637,3.664-20.845,8.657-31.615,11.907c-4.225-1.463-6.84-6.249-10.297-9.145c-4.27,2.999-9.411,2.91-13.739,0.074
		c-3.058,2.984-5.836,6.294-9.204,8.968c-1.795,0.481-1.063,0.334-30.389-11.021c-3.472,1.344-6.944,2.689-10.4,4.063
		c-1.788-1.758-3.575-3.501-5.348-5.259c-0.842,0.384-2.541,1.138-3.383,1.522c-0.96-0.369-2.881-1.078-3.856-1.448
		c-1.743,1.728-3.487,3.457-5.23,5.2c-7.697-2.925-15.32-6.072-23.076-8.849c7.815-2.822,15.438-6.087,23.283-8.82
		c1.743,1.714,3.487,3.442,5.23,5.171c0.901-0.428,2.674-1.271,3.575-1.699c0.783,0.414,2.379,1.226,3.176,1.64
		c1.847-1.699,3.59-3.546,5.717-4.92C106.808,607.266,110.028,609.083,113.589,609.881z"/>
</g>
</svg>
